<?xml version="1.0" encoding="utf-8"?>
<!-- Generator: Adobe Illustrator 19.0.0, SVG Export Plug-In . SVG Version: 6.00 Build 0)  -->
<svg version="1.1" id="Capa_1" xmlns="http://www.w3.org/2000/svg" xmlns:xlink="http://www.w3.org/1999/xlink" x="0px" y="0px"
	 viewBox="-41 221.8 2126.6 392" style="enable-background:new -41 221.8 2126.6 392;" xml:space="preserve">
<style type="text/css">
	.st0{fill:#FFFFFF;}
	.st1{fill:#F79F1A;}
	.st2{fill:#059BBF;}
	.st3{opacity:0.15;fill:#202121;enable-background:new    ;}
	.st4{fill:#0099DF;}
	.st5{fill:#EA001B;}
	.st6{fill:#FF5F01;}
	.st7{fill:#FFC715;}
	.st8{fill:#34495E;}
	.st9{fill:#FFA617;}
	.st10{fill:#306FC5;}
	.st11{fill:#F26E21;}
	.st12{fill:#E7E8E3;}
</style>
<path class="st0" d="M471,567.2c0,16.7-13.5,30.3-30.3,30.3H-10.7c-16.7,0-30.3-13.6-30.3-30.3V274.6c0-16.7,13.5-30.3,30.3-30.3
	h451.5c16.7,0,30.3,13.6,30.3,30.3V567.2L471,567.2z"/>
<path class="st1" d="M72.6,422.9l-12-57.7c-2.1-8-8-10.3-15.5-10.6H-10l-0.5,2.6C32.4,367.7,60.8,392.8,72.6,422.9z"/>
<g>
	<polygon class="st2" points="200.4,355.8 164.7,355.8 142.5,486.3 178.1,486.3 	"/>
	<path class="st2" d="M94.3,486.2l56-130.3h-37.7l-34.8,89l-3.7-13.4c-6.8-16.2-26.3-39.4-49.3-54.1l31.8,108.9L94.3,486.2z"/>
	<path class="st2" d="M301.9,443.6c0.1-14.8-9.4-26.1-29.9-35.5c-12.5-6-20.1-10.1-20-16.2c0-5.4,6.4-11.2,20.4-11.2
		c11.7-0.2,20.1,2.4,26.6,5l3.2,1.5l4.8-28.3c-7.1-2.6-18.1-5.5-31.9-5.5c-35.2,0-59.9,17.7-60.1,43.1
		c-0.2,18.8,17.7,29.2,31.2,35.5c13.8,6.4,18.5,10.5,18.4,16.2c-0.1,8.7-11,12.7-21.3,12.7c-14.3,0-21.8-2-33.5-6.8l-4.6-2.1
		l-5,29.2c8.3,3.6,23.7,6.8,39.6,6.9C277.4,488.2,301.7,470.8,301.9,443.6z"/>
	<path class="st2" d="M344.2,466.7c4.1,0,40.4,0,45.6,0c1.1,4.5,4.3,19.6,4.3,19.6h33l-28.8-130.4h-27.5c-8.5,0-14.9,2.3-18.6,10.8
		l-52.8,119.6h37.4C336.8,486.4,342.8,470.3,344.2,466.7z M368.6,403.5c-0.2,0.4,3-7.5,4.7-12.5l2.4,11.3c0,0,6.8,31.2,8.2,37.7
		h-29.5C357.4,432.5,368.6,403.5,368.6,403.5z"/>
	<path class="st2" d="M440.7,244.3H-10.7c-16.7,0-30.3,13.5-30.3,30.3V306h512v-31.4C471,257.9,457.5,244.3,440.7,244.3z"/>
</g>
<path class="st1" d="M440.7,597.4H-10.7c-16.7,0-30.3-13.6-30.3-30.3v-31.4h512v31.4C471,583.9,457.5,597.4,440.7,597.4z"/>
<path class="st3" d="M-19.5,567.2V274.6c0-16.7,13.6-30.3,30.3-30.3h-21.5c-16.7,0-30.3,13.5-30.3,30.3v292.6
	c0,16.7,13.5,30.3,30.3,30.3h21.5C-5.9,597.4-19.5,583.9-19.5,567.2z"/>
<path class="st4" d="M1009.5,568.2c0,16.7-13.5,30.3-30.3,30.3H527.8c-16.7,0-30.3-13.6-30.3-30.3V275.6c0-16.7,13.5-30.3,30.3-30.3
	h451.5c16.7,0,30.3,13.6,30.3,30.3L1009.5,568.2L1009.5,568.2z"/>
<path class="st3" d="M519,568.2V275.6c0-16.7,13.6-30.3,30.3-30.3h-21.5c-16.7,0-30.3,13.6-30.3,30.3v292.6
	c0,16.7,13.5,30.3,30.3,30.3h21.5C532.6,598.5,519,584.9,519,568.2z"/>
<path class="st5" d="M832.2,400.5c0-18,8.3-34.1,21.3-44.6c-9.9-8-22.5-12.8-36.2-12.8c-31.7,0-57.4,25.7-57.4,57.5
	c0,31.7,25.7,57.5,57.4,57.5c13.7,0,26.3-4.8,36.2-12.8C840.5,434.6,832.2,418.5,832.2,400.5z"/>
<path class="st1" d="M889.7,343c-13.7,0-26.3,4.8-36.2,12.8c13,10.5,21.3,26.6,21.3,44.6c0,18-8.3,34.1-21.3,44.6
	c9.9,8,22.5,12.8,36.2,12.8c31.7,0,57.5-25.7,57.5-57.5C947.1,368.8,921.4,343,889.7,343z"/>
<path class="st6" d="M874.8,400.5c0-18-8.3-34.1-21.3-44.6c-13,10.5-21.3,26.6-21.3,44.6c0,18,8.3,34.1,21.3,44.6
	C866.5,434.6,874.8,418.5,874.8,400.5z"/>
<path class="st7" d="M663.4,427.1c0,4-3.3,7.3-7.3,7.3h-90.7c-4,0-7.3-3.3-7.3-7.3v-70.7c0-4,3.3-7.3,7.3-7.3h90.7
	c4,0,7.3,3.3,7.3,7.3V427.1L663.4,427.1z"/>
<g>
	<path class="st8" d="M664.4,497H558.1c-4.6,0-8.3-3.7-8.3-8.3c0-4.6,3.7-8.3,8.3-8.3h106.3c4.6,0,8.3,3.7,8.3,8.3
		C672.7,493.3,669,497,664.4,497z"/>
	<path class="st8" d="M664.4,531.8H558.1c-4.6,0-8.3-3.7-8.3-8.3c0-4.6,3.7-8.3,8.3-8.3h106.3c4.6,0,8.3,3.7,8.3,8.3
		C672.7,528.1,669,531.8,664.4,531.8z"/>
</g>
<g>
	<polygon class="st9" points="586.4,434.4 603.1,434.4 603.1,426.1 603.1,357.5 603.1,349.2 586.4,349.2 586.4,357.5 586.4,369.2 
		566.4,369.2 558.1,369.2 558.1,385.9 566.4,385.9 586.4,385.9 586.4,397.7 566.4,397.7 558.1,397.7 558.1,414.4 566.4,414.4 
		586.4,414.4 586.4,426.1 	"/>
	<path class="st9" d="M655,385.9h8.3v-16.7H655h-15.9v-11.7v-8.3h-16.7v8.3V406c0,4.6,3.7,8.3,8.3,8.3H655h8.3v-16.7H655h-15.9
		v-11.7H655z"/>
</g>
<path class="st3" d="M573.4,427.1v-70.7c0-4,3.3-7.3,7.3-7.3h-15.4c-4,0-7.3,3.3-7.3,7.3v70.7c0,4,3.3,7.3,7.3,7.3h15.4
	C576.7,434.4,573.4,431.2,573.4,427.1z"/>
<path class="st10" d="M1546.3,567.2c0,16.7-13.6,30.3-30.3,30.3h-451.5c-16.7,0-30.3-13.6-30.3-30.3V274.6
	c0-16.7,13.5-30.3,30.3-30.3h451.5c16.7,0,30.3,13.6,30.3,30.3V567.2L1546.3,567.2z"/>
<path class="st3" d="M1055.8,567.2V274.6c0-16.7,13.6-30.3,30.3-30.3h-21.5c-16.7,0-30.3,13.5-30.3,30.3v292.6
	c0,16.7,13.5,30.3,30.3,30.3h21.5C1069.4,597.4,1055.8,583.9,1055.8,567.2z"/>
<g>
	<polygon class="st0" points="1108.9,385.6 1124.2,385.6 1116.6,366.2 	"/>
	<polygon class="st0" points="1190.3,451 1190.3,460 1216,460 1216,469.8 1190.3,469.8 1190.3,480.2 1218.8,480.2 1232,465.6 
		1219.5,451 	"/>
	<polygon class="st0" points="1391.2,366.2 1382.9,385.6 1398.9,385.6 	"/>
	<polygon class="st0" points="1264.7,485.8 1264.7,446.1 1246.6,465.6 	"/>
	<path class="st0" d="M1298.7,457.3c-0.7-4.2-3.5-6.3-7.7-6.3h-14.6v12.5h15.3C1296,463.5,1298.7,461.4,1298.7,457.3z"/>
	<path class="st0" d="M1347.4,462.1c1.4-0.7,2.1-2.8,2.1-4.9c0.7-2.8-0.7-4.2-2.1-4.9c-1.4-0.7-3.5-0.7-5.6-0.7h-13.9v11.1h13.9
		C1343.9,462.8,1346,462.8,1347.4,462.1z"/>
	<path class="st0" d="M1447.5,348.1v8.3l-4.2-8.3h-32.7v8.3l-4.2-8.3H1362c-7.6,0-13.9,1.4-19.5,4.2v-4.2h-31.3v0.7v3.5
		c-3.5-2.8-7.6-4.2-13.2-4.2h-111.9l-7.7,17.4l-7.6-17.4h-25h-10.4v8.3l-3.5-8.3h-0.7h-29.9l-13.9,32.7l-16,35.5l-0.3,0.7h0.3h35.5
		h0.4l0.3-0.7l4.2-10.4h9l4.2,11.1h40.3v-0.7v-7.6l3.5,8.3h20.2l3.5-8.3v7.6v0.7h16h80h0.7v-18.1h1.4c1.4,0,1.4,0,1.4,2.1v15.3h50.1
		v-4.2c4.2,2.1,10.4,4.2,18.8,4.2h20.9l4.2-11.1h9.7l4.2,11.1h40.3v-7v-3.5l6.3,10.4h1.4h0.7h30.6v-68.1H1447.5L1447.5,348.1
		L1447.5,348.1z M1211.8,406.5h-7h-4.2v-4.2v-34.1l-0.7,1.6v0l-16.2,36.7h-0.5h-3.7h-6l-16.7-38.2v38.2h-23.6l-4.9-10.4h-23.6
		l-4.9,10.4h-12.2l20.6-48.7h17.4l19.5,46.6v-46.6h4.2h14.3l0.3,0.7h0l8.8,19.1l6.3,14.3l0.2-0.7l13.9-33.4h18.8L1211.8,406.5
		L1211.8,406.5L1211.8,406.5z M1259.8,368.3h-27.1v9h26.4v9.7h-26.4v9.7h27.1v10.4h-38.9v-49.4h38.9V368.3L1259.8,368.3z
		 M1309.4,386.2C1309.4,386.2,1309.4,386.2,1309.4,386.2c0.3,0.3,0.6,0.6,0.7,0.9c1.3,1.7,2.4,4.3,2.5,8.2c0,0.1,0,0.1,0,0.2
		c0,0,0,0.1,0,0.1c0,0,0,0,0,0.1c0,0.4,0,0.8,0,1.2v9.7h-10.4v-5.6c0-2.8,0-7-2.1-9.7c-0.7-0.7-1.3-1.1-2-1.4c-1-0.7-3-0.7-6.3-0.7
		h-12.5v17.4h-11.8v-48.7h26.4c6.3,0,10.4,0,13.9,2.1c3.4,2,5.5,5.4,5.5,10.8c-0.2,7.4-4.9,11.5-8.3,12.8
		C1305,383.6,1307.3,384,1309.4,386.2z M1332.8,406.5H1321v-48.7h11.8V406.5z M1468.4,406.5h-15.3l-22.3-36.9v30.6l-0.1-0.1v6.4
		H1419v0h-11.8l-4.2-10.4h-24.3l-4.2,11.1h-13.2c-5.6,0-12.5-1.4-16.7-5.6c-4.2-4.2-6.3-9.7-6.3-18.8c0-7,1.4-13.9,6.3-19.5
		c3.5-4.2,9.7-5.6,17.4-5.6h11.1v10.4H1362c-4.2,0-6.3,0.7-9,2.8c-2.1,2.1-3.5,6.3-3.5,11.1c0,5.6,0.7,9,3.5,11.8
		c2.1,2.1,4.9,2.8,8.3,2.8h4.9l16-38.2h7h10.4l19.5,46.6v-2.4V387v-1.4v-27.1h17.4l20.2,34.1v-34.1h11.8L1468.4,406.5L1468.4,406.5
		L1468.4,406.5L1468.4,406.5z"/>
	<path class="st0" d="M1299.5,378.1c0.2-0.2,0.4-0.5,0.5-0.7c0.6-1,1.4-2.8,1-5.2c0-0.2-0.1-0.4-0.1-0.6c0-0.1,0-0.1,0-0.2l0,0
		c-0.3-1.2-1.2-1.9-2.1-2.4c-1.4-0.7-3.5-0.7-5.6-0.7h-13.9v11.1h13.9c2.1,0,4.2,0,5.6-0.7c0.2-0.1,0.4-0.3,0.6-0.4l0,0
		C1299.3,378.3,1299.4,378.2,1299.5,378.1z"/>
	<path class="st0" d="M1509.4,476c0-4.9-1.4-9.7-3.5-13.2v-31.3h0v-2.1c0,0-29.1,0-33.5,0c-4.3,0-9.6,4.2-9.6,4.2v-4.2h-32
		c-4.9,0-11.1,1.4-13.9,4.2v-4.2h-57v2.1v2.1c-4.2-3.5-11.8-4.2-15.3-4.2h-37.5v2.1v2.1c-3.5-3.5-11.8-4.2-16-4.2h-41.7l-9.7,10.4
		l-9-10.4h-2.9h-4.7H1168v2.1v5.5v62.7h61.2l10.1-10.1l8.7,10.1h0.7h35.3h1.6h0.7h0.7v-7v-9h3.5c4.9,0,11.1,0,16-2.1V499v1.4h31.3
		V499v-16.7h1.4c2.1,0,2.1,0,2.1,2.1V499v1.4h94.6c6.3,0,12.5-1.4,16-4.2v2.8v1.4h29.9c6.3,0,12.5-0.7,16.7-3.5
		c6.4-3.8,10.4-10.6,11-18.7c0-0.2,0.1-0.5,0.1-0.7l0,0C1509.4,476.9,1509.4,476.5,1509.4,476z M1290.4,471.9h-13.9v2.1v4.2v4.2v7.6
		h-22.9l-13.3-15.3l0,0.1l-0.7-0.7l-15.3,16h-44.5v-48.7h45.2l12.3,13.5l2.6,2.8l0.4-0.4l14.6-16h36.9c7.2,0,15.2,1.8,18.2,9
		c0.4,1.4,0.6,3,0.6,4.9C1310.6,469.1,1300.8,471.9,1290.4,471.9z M1359.9,471.2c1.4,2.1,2.1,4.9,2.1,9v9.7h-11.8v-6.3
		c0-2.8,0-7.6-2.1-9.7c-1.4-2.1-4.2-2.1-8.3-2.1h-12.5v18.1h-11.8v-49.4h26.4c5.6,0,10.4,0,13.9,2.1c3.5,2.1,6.3,5.6,6.3,11.1
		c0,7.6-4.9,11.8-8.3,13.2C1357.1,468.4,1359.2,469.8,1359.9,471.2z M1407.9,451h-27.1v9h26.4v9.7h-26.4v9.7h27.1v10.4H1369v-49.4
		h38.9V451z M1437.1,489.9h-22.3v-10.4h22.3c2.1,0,3.5,0,4.9-1.4c0.7-0.7,1.4-2.1,1.4-3.5c0-1.4-0.7-2.8-1.4-3.5
		c-0.7-0.7-2.1-1.4-4.2-1.4c-11.1-0.7-24.3,0-24.3-15.3c0-7,4.2-14.6,16.7-14.6h22.9v11.8h-21.6c-2.1,0-3.5,0-4.9,0.7
		c-1.4,0.7-1.4,2.1-1.4,3.5c0,2.1,1.4,2.8,2.8,3.5c1.4,0.7,2.8,0.7,4.2,0.7h6.3c6.3,0,10.4,1.4,13.2,4.2c2.1,2.1,3.5,5.6,3.5,10.4
		C1455.2,485.1,1448.9,489.9,1437.1,489.9z M1496.9,485.1c-2.8,2.8-7.6,4.9-14.6,4.9h-22.2v-10.4h22.2c2.1,0,3.5,0,4.9-1.4
		c0.7-0.7,1.4-2.1,1.4-3.5c0-1.4-0.7-2.8-1.4-3.5c-0.7-0.7-2.1-1.4-4.2-1.4c-11.1-0.7-24.3,0-24.3-15.3c0-6.6,3.8-12.6,13.1-14.4
		c1.1-0.2,2.3-0.3,3.6-0.3h22.9v11.8H1483h-5.6h-0.7c-2.1,0-3.5,0-4.9,0.7c-0.7,0.7-1.4,2.1-1.4,3.5c0,2.1,0.7,2.8,2.8,3.5
		c1.4,0.7,2.8,0.7,4.2,0.7h0.7h5.6c3,0,5.3,0.4,7.4,1.1c1.9,0.7,8.3,3.5,9.7,11c0.1,0.8,0.2,1.6,0.2,2.5
		C1501.1,478.8,1499.7,482.3,1496.9,485.1z"/>
</g>
<path class="st8" d="M2085.6,564c0,16.7-13.6,30.3-30.3,30.3h-451.5c-16.7,0-30.3-13.6-30.3-30.3V271.5c0-16.7,13.5-30.3,30.3-30.3
	h451.5c16.7,0,30.3,13.6,30.3,30.3L2085.6,564L2085.6,564z"/>
<path class="st3" d="M1595.1,564V271.5c0-16.7,13.6-30.3,30.3-30.3h-21.5c-16.7,0-30.3,13.6-30.3,30.3V564
	c0,16.7,13.5,30.3,30.3,30.3h21.5C1608.7,594.3,1595.1,580.8,1595.1,564z"/>
<path class="st11" d="M1883,417.6c0-9.6-3.6-19.3-10.8-26.6c-7.3-7.3-17-10.9-26.6-10.8c0,0-0.1,0-0.1,0c-21,0-37.6,16.6-37.6,37.6
	c0,20.8,16.8,37.6,37.6,37.6c21,0,37.6-16.6,37.6-37.6C1883,417.7,1883,417.6,1883,417.6z"/>
<g>
	<path class="st12" d="M1800.8,433.7c-5.6,5.6-10.8,7.8-16.4,7.9c-13.6-0.1-23.6-10.2-23.6-24.6c0-7.2,2.7-13.2,7.1-18.2l0,0
		c4.1-3.9,9.3-6.4,15.3-6.4c6.5,0,11.6,2.2,17.4,8v-16.6c-5.8-2.9-10.8-4.3-17.4-4.3c-9.2,0.7-17.9,4.4-24.5,10.2l0,0
		c-1.9,1.7-3.8,3.6-5.3,5.8c-4.9,6.3-7.8,14-7.8,22.3c0,21,16.6,36.9,37.6,36.9c0.1,0,0.2,0,0.3,0c0.1,0,0.3,0,0.4,0
		c5.8,0,10.8-1.4,17.4-4.3L1800.8,433.7c-0.2,0.2,0.2,0.5,0,0.7V433.7z"/>
	<polygon class="st12" points="1930.5,389.8 1930.5,389.8 1914.1,430.1 1895.3,382.3 1880.1,382.3 1909.8,455.4 1917.7,455.4 
		1948.8,382.3 1933.6,382.3 	"/>
	<polygon class="st12" points="1954.6,414.1 1954.6,453.2 1993.6,453.2 1994.4,453.2 1994.4,441.6 1982.1,441.6 1969.1,441.6 
		1969.1,428.6 1969.1,422.1 1993.6,422.1 1993.6,409.8 1969.1,409.8 1969.1,394.6 1994.4,394.6 1994.4,382.3 1954.6,382.3 	"/>
	<path class="st12" d="M1627.8,382.3h-20.3v70.9h20.3c10.8,0,18.8-2.9,25.3-8c8-6.5,13-16.6,13-27.5
		C1666.1,396.8,1650.9,382.3,1627.8,382.3z M1644.4,435.8c-4.3,3.6-10.1,5.8-18.8,5.8h-4.3v-47h3.6c8.7,0,14.5,1.4,18.8,5.8
		c5.1,4.3,8,10.8,8,17.4C1652.3,424.3,1649.4,431.5,1644.4,435.8z"/>
	<rect x="1672.6" y="382.3" class="st12" width="13.7" height="70.9"/>
	<path class="st12" d="M1721,409.8c-8.7-2.9-10.8-5.1-10.8-8.7c0-4.3,4.3-8,10.1-8c4.3,0,8,1.4,11.6,5.8l7.2-9.4c-5.8-5.1-13-8-21-8
		c-12.3,0-22.4,8.7-22.4,20.2c0,10.1,4.3,14.5,17.4,19.5c5.8,2.2,8,2.9,9.4,4.3c2.9,1.4,4.3,4.3,4.3,7.2c0,5.8-4.3,10.1-10.8,10.1
		c-6.5,0-12.3-3.6-15.2-9.4l-8.7,8.7c6.5,9.4,14.5,13.7,24.6,13.7c14.5,0,24.6-9.4,24.6-23.1C1741.3,420.7,1736.9,415.6,1721,409.8z
		"/>
	<path class="st12" d="M2033.4,423.5c10.8-2.2,16.6-9.4,16.6-20.2c0-13-9.4-21-25.3-21h-21v70.9h13.7V425h2.2l19.5,28.2h16.6
		L2033.4,423.5z M2021.8,414.9h-4.3v-21.7h4.3c8.7,0,13.7,3.6,13.7,10.9C2035.6,411.3,2030.5,414.9,2021.8,414.9z"/>
</g>
</svg>
