<?xml version="1.0" encoding="iso-8859-1"?>
<!-- Generator: Adobe Illustrator 21.0.0, SVG Export Plug-In . SVG Version: 6.00 Build 0)  -->
<svg xmlns="http://www.w3.org/2000/svg" xmlns:xlink="http://www.w3.org/1999/xlink" version="1.1" id="Capa_1" x="0px" y="0px" viewBox="0 0 512 512" style="enable-background:new 0 0 512 512;" xml:space="preserve" width="512" height="512">
<g>
	<path d="M106,212h240c8.284,0,15-6.716,15-15V75c0-8.284-6.716-15-15-15H106c-8.284,0-15,6.716-15,15v122   C91,205.284,97.716,212,106,212z M121,90h210v92H121V90z"/>
	<path d="M106,452h90c8.284,0,15-6.716,15-15v-60c0-8.284-6.716-15-15-15h-90c-8.284,0-15,6.716-15,15v60   C91,445.284,97.716,452,106,452z M121,392h60v30h-60V392z"/>
	<path d="M106,332h240c8.284,0,15-6.716,15-15s-6.716-15-15-15H106c-8.284,0-15,6.716-15,15S97.716,332,106,332z"/>
	<path d="M106,272h240c8.284,0,15-6.716,15-15s-6.716-15-15-15H106c-8.284,0-15,6.716-15,15S97.716,272,106,272z"/>
	<path d="M346,362h-90c-8.284,0-15,6.716-15,15s6.716,15,15,15h90c8.284,0,15-6.716,15-15S354.284,362,346,362z"/>
	<path d="M346,422h-90c-8.284,0-15,6.716-15,15s6.716,15,15,15h90c8.284,0,15-6.716,15-15S354.284,422,346,422z"/>
	<path d="M481,135c0-8.284-6.716-15-15-15h-45V15c0-8.284-6.716-15-15-15H46c-8.284,0-15,6.716-15,15v452c0,24.813,20.187,45,45,45   h360c24.813,0,45-20.187,45-45V135z M61,30h330v437c0,5.258,0.915,10.305,2.58,15H76c-8.271,0-15-6.729-15-15V30z M451,467   c0,8.271-6.729,15-15,15s-15-6.729-15-15V150h30V467z"/>
</g>















</svg>
